<?xml version="1.0" encoding="UTF-8"?>
<svg width="64px" height="35px" viewBox="0 0 64 35" version="1.1" xmlns="http://www.w3.org/2000/svg" xmlns:xlink="http://www.w3.org/1999/xlink">
    <!-- Generator: Sketch 41 (35326) - http://www.bohemiancoding.com/sketch -->
    <title>identify</title>
    <desc>Created with Sketch.</desc>
    <defs></defs>
    <g id="Page-1" stroke="none" stroke-width="1" fill="none" fill-rule="evenodd">
        <path d="M24.1470873,19.4726803 C25.5233499,19.5027552 26.8623555,19.2226548 28.1843037,18.9003597 C30.4291468,18.3527276 32.4908473,17.3342215 34.5211263,16.2627477 C35.2231728,15.8915249 35.8134485,15.3663366 36.2102574,14.6490282 C37.0272169,13.1717679 36.4288614,11.4812902 34.8613765,10.9569997 C33.9730452,10.6598419 33.0523947,10.4865747 32.1070559,10.6270738 C31.3269044,10.7428845 30.5422642,10.8456778 29.7728859,11.0171495 C26.1630022,11.8206426 23.8723735,14.0906229 22.6586051,17.517364 C22.5172082,17.9150707 22.4835423,18.354972 22.4274325,18.7787136 C22.3803002,19.132879 22.6877822,19.4547251 23.0733691,19.4695381 C23.4306767,19.4830045 23.788882,19.4726803 24.1470873,19.4726803 M53.6752355,22.9577756 C51.9385232,23.0183743 49.653281,22.7463537 47.3622034,22.6004681 C47.1489859,22.5865528 46.9366662,22.5448071 46.7261421,22.5053057 C46.3840964,22.4406672 46.0954673,22.0654045 46.1197068,21.7282965 C46.1951184,20.6774711 46.893125,19.8869954 47.8501347,19.8829555 C48.8533789,19.8789156 49.8584186,19.9444519 50.8603162,20.0180681 C54.7309985,20.3026573 58.600783,20.3735801 62.4719142,20.0243524 C63.8050843,19.9040528 64.1574542,20.2995151 63.9406457,21.6268498 C63.6493234,23.412041 63.1007934,25.1245138 62.2528613,26.7117494 C60.9345041,29.1787875 59.5340021,31.6018355 58.1474154,34.0325145 C57.9754948,34.3328144 57.6985365,34.5895731 57.426516,34.8131148 C57.200281,34.9989506 56.9031232,35.0317188 56.6239206,34.8710201 C56.3536955,34.7152592 56.1880592,34.4562561 56.2154408,34.1689736 C56.2495556,33.8210925 56.3308027,33.452563 56.4932968,33.1464276 C56.9637219,32.259443 57.5032742,31.4092665 57.9840235,30.5276684 C58.9809834,28.7025271 59.9599882,26.8675104 60.9336064,25.0289026 C60.9816364,24.938678 60.9044292,24.7811215 60.8855763,24.6554354 C60.7603391,24.6967323 60.6036804,24.7034654 60.5152513,24.7847125 C58.4876655,26.6421732 56.1871615,28.0880119 53.7488516,29.3381395 C50.6515876,30.925824 47.3622034,31.8823848 43.9318713,32.3945556 C42.3001967,32.6382968 40.6730109,32.9210904 39.0355008,33.1123128 C36.0989354,33.4548074 33.1610234,33.4646827 30.2518396,32.8569008 C28.4855014,32.4888201 26.8111833,31.8603897 25.2531248,30.9348016 C22.5064352,29.3035758 20.7997978,26.9375355 20.1785495,23.7980768 C20.1228885,23.5166298 20.1067289,23.2244097 20.0241351,22.9519402 C19.9150576,22.5878995 19.6641343,22.319021 19.2785474,22.2602179 C18.3578969,22.1197188 17.4291665,22.0276987 16.5094138,21.8804664 C11.7185299,21.1155768 8.00271082,18.5834513 5.07736739,14.8155623 C2.61392029,11.6433355 1.02488918,8.06397557 0.316109488,4.10441528 C0.190423412,3.39922662 0.0606974257,2.69044692 0.00638308557,1.9780762 C-0.052420043,1.20690234 0.298154334,0.596427116 0.930175747,0.146201635 C1.36917926,-0.165320283 2.03037779,0.0443061373 2.13137553,0.554232504 C2.31182483,1.46859871 2.43526651,2.39508464 2.6413019,3.30316655 C3.56374793,7.37225327 5.33861488,11.0063764 8.21054172,14.0695256 C9.24610521,15.1742165 10.3997238,16.1388571 11.6664599,16.9688341 C14.0100564,18.5044486 16.6279178,19.1678915 19.3817895,19.3941265 C19.798798,19.4282413 20.047028,19.23657 20.1731629,18.8303346 C20.3221907,18.350932 20.4451835,17.8634496 20.5982512,17.3853936 C22.2671827,12.1671771 25.8770664,9.18033725 31.1976273,8.1375917 C32.4868074,7.88532179 33.7652143,7.79779041 35.0328482,8.17215537 C35.6460167,8.35350242 36.2699583,8.56761763 36.8175905,8.888566 C38.3397386,9.78003939 39.0494161,11.3834346 38.7226323,13.1147603 C38.4075193,14.7854874 37.6062706,16.2079844 36.3992354,17.4011044 C35.5243705,18.2660939 34.5215752,18.9596118 33.433044,19.5225058 C30.665257,20.9539805 27.7461979,21.8898928 24.6305298,22.1794197 C24.063147,22.2319385 23.4993552,22.3396695 22.9373588,22.4406672 C22.6707248,22.4891461 22.5041908,22.8500447 22.5948643,23.1225142 C22.6406499,23.2585244 22.6806001,23.3958814 22.7299768,23.530545 C23.644343,26.0227204 25.3734243,27.7562905 27.7358737,28.8973405 C29.972637,29.9768941 32.3718944,30.3678676 34.8173863,30.5474191 C37.123277,30.7161976 39.405377,30.4396882 41.6807439,30.1196376 C43.3133162,29.8898116 44.9364621,29.5922049 46.567239,29.3426283 C47.8537257,29.1460194 49.1060977,28.8084625 50.2651029,28.2352442 C52.5144348,27.1215758 54.7431182,25.9643661 56.9498066,24.7685529 C57.6330002,24.3982278 58.2169916,23.8461069 58.8409332,23.3693975 C58.8768435,23.341567 58.8737014,23.2365294 58.8588883,23.1745841 C58.845422,23.1202698 58.7951476,23.0376761 58.7529529,23.0327384 C58.4701593,22.9981747 58.1851212,22.9622644 57.900532,22.9609178 C56.6809282,22.9537357 55.4604266,22.9577756 53.6752355,22.9577756" id="identify" fill="#000000"></path>
    </g>
</svg>